HIERARCHY
ROOT Hips
{
  OFFSET 0 0 0
  CHANNELS 6 Xposition Yposition Zposition Zrotation Xrotation Yrotation
  JOINT LeftHip
  {
    OFFSET 3.43 -7.10543e-015 2.13163e-014
    CHANNELS 3 Zrotation Xrotation Yrotation
    JOINT LeftKnee
    {
      OFFSET 4.47642e-013 -18.47 2.84217e-014
      CHANNELS 3 Zrotation Xrotation Yrotation
      JOINT LeftAnkle
      {
        OFFSET 1.42109e-012 -17.95 2.04636e-012
        CHANNELS 3 Zrotation Xrotation Yrotation
        End Site
        {
          OFFSET 0 -3.12 0
        }
      }
    }
  }
  JOINT RightHip
  {
    OFFSET -3.43 -1.42109e-014 7.10543e-015
    CHANNELS 3 Zrotation Xrotation Yrotation
    JOINT RightKnee
    {
      OFFSET 2.13163e-013 -18.47 -3.48166e-013
      CHANNELS 3 Zrotation Xrotation Yrotation
      JOINT RightAnkle
      {
        OFFSET -3.67706e-012 -17.95 1.22924e-012
        CHANNELS 3 Zrotation Xrotation Yrotation
        End Site
        {
          OFFSET 0 -3.12 0
        }
      }
    }
  }
  JOINT Chest
  {
    OFFSET -1.42109e-014 4.57 7.10543e-015
    CHANNELS 3 Zrotation Xrotation Yrotation
    JOINT Chest2
    {
      OFFSET -1.06581e-014 6.57 0
      CHANNELS 3 Zrotation Xrotation Yrotation
      JOINT LeftCollar
      {
        OFFSET 1.06 4.19 1.76
        CHANNELS 3 Zrotation Xrotation Yrotation
        JOINT LeftShoulder
        {
          OFFSET 5.81 -2.13163e-014 9.23706e-014
          CHANNELS 3 Zrotation Xrotation Yrotation
          JOINT LeftElbow
          {
            OFFSET 5.7554e-013 -12.08 5.40012e-013
            CHANNELS 3 Zrotation Xrotation Yrotation
            JOINT LeftWrist
            {
              OFFSET 1.70104e-011 -9.82 1.39977e-012
              CHANNELS 3 Zrotation Xrotation Yrotation
              End Site
              {
                OFFSET 0 -7.37 0
              }
            }
          }
        }
      }
      JOINT RightCollar
      {
        OFFSET -1.06 4.19 1.76
        CHANNELS 3 Zrotation Xrotation Yrotation
        JOINT RightShoulder
        {
          OFFSET -6.06 7.10543e-015 -8.52651e-014
          CHANNELS 3 Zrotation Xrotation Yrotation
          JOINT RightElbow
          {
            OFFSET -1.59872e-014 -11.08 -3.97904e-013
            CHANNELS 3 Zrotation Xrotation Yrotation
            JOINT RightWrist
            {
              OFFSET 1.12834e-011 -9.82 -1.84031e-011
              CHANNELS 3 Zrotation Xrotation Yrotation
              End Site
              {
                OFFSET 0 -7.14001 0
              }
            }
          }
        }
      }
      JOINT Neck
      {
        OFFSET -1.42109e-014 4.05 -2.13163e-014
        CHANNELS 3 Zrotation Xrotation Yrotation
        JOINT Head
        {
          OFFSET -3.19744e-014 5.19 -1.42109e-014
          CHANNELS 3 Zrotation Xrotation Yrotation
          End Site
          {
            OFFSET 0 4.14001 0
          }
        }
      }
    }
  }
}
MOTION
Frames:	7
Frame Time:	0.0333333
22.4199 38.2171 56.3243 -7.32786 1.61758 -131.786 -8.33221 -9.44917 -2.2714 -1.3469 32.347 0.515343 5.33313 -16.129 0.756182 -3.47444 -19.9935 -5.91779 -16.5075 62.5145 7.86704 -3.4685 -10.4983 -0.318755 -2.31221 6.67541 -2.53312 -2.84163 0.92112 -3.69077 5.37684 -0.000727081 -0.221095 13.2256 -8.56433 -5.10282 -4.10713 -9.75769 -28.8351 9.54356 3.36268 -0.280784 -4.63825 0.272733 -4.072 -13.3346 10.5063 18.9764 3.74636 -14.2596 24.6054 -8.89932 1.17656 0.0915602 1.97007 -2.7592 -1.14962 1.79448 -6.85052 -0.256596 
21.6893 38.2412 55.4612 -6.74483 2.31516 -130.222 -6.90526 -7.73534 -1.75036 -1.1952 32.7668 -1.43654 5.71725 -18.0238 0.907476 -2.88018 -22.2099 -5.87295 -12.0314 54.7335 1.53063 -4.61142 -14.13 -0.571828 -1.80874 6.9276 -3.25743 -2.51389 1.21391 -4.45103 5.8131 -0.00218555 -0.276956 12.7396 -11.8122 -6.37592 -3.60114 -10.7067 -29.0551 9.40431 2.70896 -0.222861 -4.73157 0.275509 -4.30301 -12.9594 10.6934 18.7911 3.29961 -14.9099 24.5675 -8.21447 0.816917 0.058662 2.18172 -2.67812 -1.52181 1.96294 -5.94264 -0.541828 
20.9587 38.1987 54.5848 -6.37337 2.64662 -128.796 -5.93604 -6.08526 -1.59042 -0.956777 33.2538 -3.23129 6.02816 -20.0426 1.06619 -3.15239 -22.8452 -6.34874 -8.00888 42.3935 -3.03741 -4.80102 -11.4977 -0.483619 -1.56488 7.09434 -3.87463 -2.39889 1.3925 -5.08127 6.22176 -0.00358335 -0.336076 12.1911 -14.6012 -7.60775 -3.06569 -12.0144 -29.386 9.33818 1.92523 -0.157252 -4.80436 0.277957 -4.47078 -12.5018 10.8828 18.6375 2.85241 -15.519 24.5051 -7.4382 0.518991 0.0337356 2.39937 -2.62967 -1.893 2.13926 -5.08451 -0.862877 
20.188 38.0789 53.6664 -6.37389 2.53444 -127.622 -5.4394 -4.46611 -1.49133 -0.798926 33.7863 -4.82101 6.31785 -22.1154 1.23587 -4.70163 -20.4623 -7.43436 -4.83186 23.4927 -6.2739 2.27791 3.99534 -0.079464 -1.72366 7.16527 -4.33445 -2.50736 1.46585 -5.55211 6.5452 -0.00476891 -0.353639 11.68 -16.8402 -8.80417 -2.55873 -13.5477 -29.8895 9.3496 1.05036 -0.0858929 -4.85001 0.279617 -4.56371 -11.9944 11.0749 18.4596 2.40023 -15.8955 24.4678 -6.74514 0.254875 0.0150199 2.56694 -2.6037 -2.23055 2.34032 -4.29088 -1.20269 
19.3023 37.796 52.6333 -7.14105 1.61652 -126.677 -5.96856 -2.90943 -1.39047 -0.518069 34.8778 -5.95808 6.33422 -24.643 1.38492 -6.41367 -21.9228 -7.86973 -3.48644 16.1272 -9.46076 0.603245 0.507987 -0.00267424 -2.86788 7.02723 -4.6662 -2.74353 1.3826 -5.86594 6.73594 -0.00448473 -0.29602 11.3023 -18.3972 -9.9147 -2.13839 -15.1498 -30.5569 9.45537 0.211139 -0.0174615 -4.87398 0.280563 -4.57211 -11.5826 11.3962 18.1845 1.95543 -15.8779 24.5645 -6.25718 -0.00820234 -0.000448328 2.63466 -2.55276 -2.51209 2.56342 -3.53351 -1.54247 
18.3709 37.476 51.522 -7.78088 1.07904 -125.979 -5.81863 -0.829761 -0.935227 -0.490148 35.7761 -7.14765 6.50414 -27.3784 1.58584 -7.42691 -22.6728 -8.00185 -2.5289 11.9854 -9.39784 -0.0761411 -5.3773 -0.00357561 -3.68663 6.87293 -4.96731 -2.98853 1.23546 -6.03534 6.7836 -0.00258508 -0.166071 10.9705 -19.277 -10.884 -1.79806 -16.6777 -31.3467 9.6705 -0.481191 0.0407051 -4.89572 0.281482 -4.51528 -11.1482 11.5609 17.8491 1.51227 -15.3599 24.7601 -6.00911 -0.286109 -0.0150172 2.57122 -2.40344 -2.72431 2.78884 -2.73329 -1.86336 
17.4589 37.3309 50.393 -7.6627 1.59187 -125.778 -4.29266 2.18968 -0.357696 -0.816074 34.8591 -8.28418 6.83045 -29.2338 1.78332 -6.94599 -24.609 -7.26863 -2.57335 16.6081 -9.00519 0.501542 -9.92859 0.0435646 -3.20942 6.95054 -5.06536 -2.96964 1.26811 -6.09246 6.74825 0.000241641 0.0158375 10.513 -19.3752 -11.6017 -1.46869 -17.9542 -32.3164 9.94762 -1.04131 0.0906254 -4.94474 0.283438 -4.46843 -10.7057 11.444 17.4847 1.09316 -14.3109 25.0746 -5.95326 -0.573391 -0.0298159 2.378 -2.09656 -2.86597 2.9893 -1.77284 -2.15284 
